<svg width="471" height="222" viewBox="0 0 471 222" fill="none" xmlns="http://www.w3.org/2000/svg">
<g clip-path="url(#clip0_57_2999)">
<path d="M442.441 139.575L430.021 140.046L424.234 151.46L423.039 152.749C421.055 154.89 421.182 158.218 423.322 160.202C425.462 162.186 428.79 162.059 430.774 159.919L431.969 158.63L442.912 151.996L442.441 139.575ZM421.956 148.3C422.524 148.169 422.988 147.767 423.2 147.223C424.386 144.17 427.109 139.632 430.485 135.084C430.827 134.621 430.922 134.022 430.737 133.476C430.359 132.352 429.264 132.307 429.035 132.196C428.685 132.094 420.356 129.787 412.537 138.222C406.63 144.595 410.272 148.107 410.43 148.253C411.142 148.913 412.254 148.871 412.914 148.158C414.891 146.026 418.234 145.899 420.366 147.876C420.793 148.271 421.388 148.43 421.956 148.3ZM449.41 150.784C448.852 150.642 448.261 150.782 447.825 151.158C443.396 154.996 439.192 157.976 436.287 159.333C435.757 159.581 435.385 160.076 435.294 160.654C435.205 161.232 435.407 161.817 435.836 162.215C437.969 164.192 438.096 167.535 436.119 169.668C435.458 170.38 435.501 171.491 436.213 172.152C436.371 172.298 440.148 175.664 446.056 169.291C453.874 160.856 450.944 152.725 450.815 152.387C450.693 152.177 450.556 151.074 449.41 150.784ZM466.875 114.767C466.722 114.002 466.103 113.428 465.328 113.333C464.879 113.3 458.214 112.682 450.009 115.431L455.528 125.341L465.943 130.201C468.063 121.812 466.942 115.212 466.875 114.767ZM444.454 127.061C441.825 129.897 441.995 134.368 444.831 136.997C447.693 139.65 452.139 139.457 454.768 136.62C457.421 133.759 457.253 129.337 454.391 126.684C451.555 124.055 447.107 124.199 444.454 127.061Z" fill="url(#paint0_linear_57_2999)"/>
<path d="M450.009 115.431C444.628 117.203 438.606 120.441 433.228 126.242C431.46 128.15 429.533 130.487 427.662 132.971C424.113 137.783 421.212 142.619 419.945 145.951C419.671 146.608 419.825 147.374 420.366 147.876L424.234 151.461L432.599 142.436C434.582 140.296 437.911 140.17 440.051 142.154C442.217 144.161 442.341 147.44 440.334 149.606L431.969 158.63L435.836 162.215C436.352 162.693 437.128 162.838 437.763 162.515C440.965 161.026 445.473 157.869 450.145 153.812C452.48 151.758 454.665 149.66 456.433 147.752C461.811 141.951 464.584 135.701 465.942 130.201L450.009 115.431ZM454.767 136.62C452.138 139.457 447.693 139.65 444.831 136.997C441.995 134.368 441.825 129.897 444.454 127.061C447.107 124.199 451.554 124.055 454.391 126.684C457.253 129.337 457.42 133.759 454.767 136.62ZM420.954 162.781C420.242 162.121 419.131 162.163 418.47 162.875L409.72 172.29C409.059 173.003 409.101 174.114 409.814 174.774C410.526 175.434 411.637 175.392 412.298 174.68L421.049 165.265C421.709 164.552 421.667 163.441 420.954 162.781ZM423.627 167.655L421.237 170.233C420.576 170.946 420.618 172.057 421.331 172.717C422.044 173.378 423.155 173.336 423.815 172.623L426.205 170.045C426.866 169.332 426.824 168.221 426.111 167.561C425.398 166.9 424.287 166.942 423.627 167.655ZM413.502 163.063L415.892 160.485C416.552 159.773 416.51 158.662 415.798 158.001C415.085 157.341 413.974 157.383 413.313 158.095L410.924 160.674C410.263 161.386 410.305 162.497 411.018 163.158C411.73 163.818 412.841 163.776 413.502 163.063Z" fill="#218B81"/>
</g>
<path d="M397.525 181.146C397.526 180.52 398.443 178.964 399.596 177.6C400.749 176.235 401.719 175.615 401.741 176.201C401.763 176.788 400.846 178.343 399.67 179.747C398.494 181.151 397.547 181.731 397.525 181.146Z" fill="#435989"/>
<path d="M377.355 190.623C378.792 189.221 380.315 188.351 381.837 188.061C383.344 187.218 384.876 186.949 386.344 187.27C383.404 189.554 380.344 190.695 377.355 190.623Z" fill="#435989"/>
<path d="M359.012 190.042C362.377 189.069 365.76 189.305 368.949 190.736C367.283 191.515 365.571 191.704 363.92 191.29C362.224 191.459 360.555 191.034 359.012 190.042Z" fill="#435989"/>
<path d="M339.991 183.926C343.423 183.352 346.591 184.773 349.3 188.104C347.522 188.955 345.841 188.763 344.37 187.54C342.704 187.35 341.211 186.118 339.991 183.926Z" fill="#435989"/>
<path d="M323.594 172.563C325.254 172.977 326.837 173.903 328.247 175.286C329.807 176.226 331.225 177.632 332.42 179.42C330.76 179.006 329.177 178.08 327.766 176.698C326.209 175.752 324.791 174.347 323.594 172.563Z" fill="#435989"/>
<path d="M309.881 162.356C312.744 163.324 315.373 164.928 317.59 167.06C316.11 166.697 314.718 166.024 313.495 165.08C311.35 163.745 309.728 162.585 309.881 162.356Z" fill="#435989"/>
<path d="M296.296 151.256C297.854 151.967 299.249 152.96 300.4 154.178C301.744 155.194 302.892 156.42 303.792 157.8C303.58 158.043 301.748 156.721 299.686 154.897C297.624 153.072 296.083 151.518 296.296 151.256Z" fill="#435989"/>
<path d="M283.341 134.543C283.546 134.326 284.984 136.006 286.537 138.27C288.091 140.534 289.166 142.545 288.978 142.764C288.791 142.983 287.335 141.301 285.785 139.016C284.234 136.73 283.12 134.737 283.341 134.543Z" fill="#435989"/>
<path d="M271.802 119.87C272.008 119.656 273.457 121.357 275.024 123.631C276.59 125.906 277.641 127.904 277.437 128.096C277.233 128.288 275.782 126.61 274.216 124.335C272.649 122.061 271.598 120.062 271.802 119.87Z" fill="#435989"/>
<path d="M258.625 104.985C259.88 105.7 260.984 106.678 261.868 107.859C263.503 109.63 264.667 111.202 264.478 111.378C263.232 110.647 262.132 109.672 261.235 108.504C259.698 106.763 258.466 105.182 258.625 104.985Z" fill="#435989"/>
<path d="M243.394 93.6967C244.929 94.0239 246.367 94.6698 247.592 95.5816C248.982 96.2711 250.187 97.2365 251.11 98.4019C249.64 97.9084 248.272 97.1863 247.07 96.2693C245.697 95.6007 244.454 94.7311 243.394 93.6967Z" fill="#435989"/>
<path d="M226.094 86.2368C227.783 86.0504 229.496 86.2836 231.076 86.9146C232.755 87.2234 234.336 87.9263 235.682 88.964C234.01 88.8702 232.362 88.5059 230.806 87.8855C229.157 87.5876 227.566 87.0309 226.094 86.2368Z" fill="#435989"/>
<path d="M208.011 85.7194C209.555 84.9814 211.251 84.6525 212.947 84.7623C214.637 84.5339 216.354 84.7336 217.949 85.3443C216.332 85.8078 214.653 85.9901 212.981 85.8838C211.326 86.1071 209.647 86.0514 208.011 85.7194Z" fill="#435989"/>
<path d="M189.258 91.2039C189.142 90.9014 190.952 89.3526 193.375 88.0441C194.824 87.0643 196.419 86.5385 198.024 86.5126C196.697 87.6852 195.243 88.59 193.716 89.1926C192.307 90.1435 190.804 90.8218 189.258 91.2039Z" fill="#435989"/>
<path d="M174.747 102.831C175.444 101.297 176.516 99.9545 177.872 98.917C179.928 97.0373 181.903 95.8809 182.083 96.0997C182.263 96.3188 180.609 97.9084 178.608 99.6559C176.608 101.404 174.97 103.035 174.747 102.831Z" fill="#435989"/>
<path d="M164.508 120.69C164.594 118.986 165.101 117.331 165.982 115.871C166.554 114.257 167.524 112.813 168.803 111.671C168.427 113.311 167.792 114.881 166.923 116.322C166.373 117.905 165.557 119.382 164.508 120.69Z" fill="#435989"/>
<path d="M162.134 139.453C161.373 137.905 161.121 136.254 161.4 134.657C161.278 133.023 161.677 131.417 162.564 129.985C162.902 131.573 162.936 133.179 162.664 134.746C162.805 136.343 162.626 137.931 162.134 139.453Z" fill="#435989"/>
<path d="M166.768 159.017C166.498 159.18 165.153 157.162 164.083 154.374C163.249 152.744 162.855 150.911 162.941 149.067C163.875 150.586 164.593 152.237 165.072 153.97C165.878 155.554 166.45 157.255 166.768 159.017Z" fill="#435989"/>
<path d="M179.924 173.886C178.267 173.289 176.793 172.33 175.639 171.099C173.535 169.273 172.218 167.482 172.444 167.322C172.67 167.163 174.376 168.645 176.381 170.423C178.386 172.2 180.092 173.683 179.924 173.886Z" fill="#435989"/>
<path d="M197.006 183.365C195.287 183.399 193.552 183.1 191.973 182.495C190.279 182.11 188.716 181.413 187.436 180.472C189.117 180.714 190.758 181.142 192.302 181.741C193.955 182.106 195.542 182.653 197.006 183.365Z" fill="#435989"/>
<path d="M215.112 183.693C213.656 184.31 211.979 184.627 210.244 184.612C208.573 184.844 206.814 184.742 205.146 184.316C206.737 183.986 208.4 183.825 210.087 183.836C211.725 183.609 213.418 183.561 215.112 183.693Z" fill="#435989"/>
<path d="M232.645 174.308C232.821 174.544 231.082 175.965 228.627 177.264C227.223 178.207 225.6 178.804 223.895 179.001C223.784 178.734 225.726 177.669 228.119 176.383C229.498 175.456 231.027 174.755 232.645 174.308Z" fill="#435989"/>
<path d="M247.165 162.686C246.429 164.175 245.337 165.482 243.97 166.507C241.935 168.395 240.015 169.634 239.81 169.415C240.71 168.031 241.861 166.807 243.213 165.794C245.222 163.942 246.936 162.484 247.165 162.686Z" fill="#435989"/>
<path d="M257.426 144.828C256.104 148.152 254.079 151.16 251.484 153.655C251.991 151.933 252.838 150.327 253.978 148.93C254.831 147.345 256.004 145.95 257.426 144.828Z" fill="#435989"/>
<path d="M264.381 126.597C264.319 128.255 264.001 129.905 263.454 131.415C263.11 133.033 262.523 134.54 261.74 135.809C261.94 134.178 262.314 132.584 262.849 131.09C263.187 129.492 263.706 127.97 264.381 126.597Z" fill="#435989"/>
<path d="M268.662 108.059C269.731 111.277 269.463 114.543 267.886 117.488C267.449 115.893 267.416 114.286 267.79 112.736C267.686 111.13 267.981 109.549 268.662 108.059Z" fill="#435989"/>
<path d="M265.405 88.6436C267.019 91.6148 267.781 95.0054 267.602 98.4183C266.874 96.9062 266.398 95.2756 266.194 93.5964C265.66 92.0056 265.393 90.3307 265.405 88.6436Z" fill="#435989"/>
<path d="M257.54 70.6107C257.796 70.4488 259.534 72.1075 261.006 74.4058C262.119 75.7258 262.873 77.2518 263.207 78.8585C262.913 78.9777 261.625 77.1606 260.064 74.8905C258.976 73.5852 258.124 72.1404 257.54 70.6107Z" fill="#435989"/>
<path d="M244.383 55.7358C245.997 56.3621 247.437 57.3289 248.586 58.5571C250.684 60.375 252.071 62.1097 251.865 62.2944C251.659 62.4791 249.95 61.048 247.871 59.251C245.792 57.4544 244.193 55.9601 244.383 55.7358Z" fill="#435989"/>
<path d="M229.154 44.4445C230.65 44.6251 232.076 45.2169 233.31 46.1703C235.471 47.4805 237.016 48.9024 236.863 49.1494C235.434 48.7375 234.082 48.0504 232.866 47.1166C231.503 46.4686 230.249 45.5659 229.154 44.4445Z" fill="#435989"/>
<path d="M210.02 38.6091C213.398 38.4588 216.704 39.4306 219.598 41.4251C216.285 41.1092 213.055 40.1596 210.02 38.6091Z" fill="#435989"/>
<path d="M191.975 37.9282C193.608 37.1642 195.303 36.9029 196.95 37.1609C198.63 36.9366 200.296 37.1999 201.85 37.9357C198.527 38.923 195.16 38.9199 191.955 37.9259L191.975 37.9282Z" fill="#435989"/>
<path d="M173.594 39.8771C175.108 39.386 176.776 39.1341 178.493 39.137C180.14 38.8952 181.868 38.9003 183.572 39.1516C182.054 39.6357 180.389 39.8878 178.674 39.8921C177.026 40.1351 175.298 40.13 173.594 39.8771Z" fill="#435989"/>
<path d="M154.844 45.3191C154.745 45.0728 156.585 44.2042 158.945 43.3961C160.351 42.796 161.868 42.4931 163.401 42.5067C160.734 43.925 157.84 44.8761 154.844 45.3191Z" fill="#435989"/>
<path d="M137.51 52.8197C137.392 52.5077 139.284 51.2141 141.68 49.8873C143.106 48.9379 144.67 48.3392 146.276 48.1283C145.049 49.4134 143.633 50.4096 142.105 51.0607C140.672 51.991 139.112 52.5884 137.51 52.8197Z" fill="#435989"/>
<path d="M120.17 60.3222C120.074 60.0068 121.967 58.7289 124.37 57.4402C125.795 56.4747 127.347 55.8599 128.938 55.6307C127.687 56.9186 126.253 57.8975 124.719 58.5106C123.306 59.491 121.757 60.1079 120.17 60.3222Z" fill="#435989"/>
<path d="M101.408 65.7544C104.098 64.0975 107.015 63.1399 109.971 62.9427C108.688 63.9453 107.258 64.6096 105.778 64.8919C104.371 65.5397 102.884 65.8331 101.408 65.7544Z" fill="#435989"/>
<path d="M83.128 66.9878C84.7605 66.4615 86.4454 66.2946 88.1014 66.4951C89.764 66.2652 91.4343 66.3856 93.039 66.8505C91.4454 67.6239 89.738 67.9264 88.0618 67.7322C86.3759 67.9577 84.6865 67.7029 83.128 66.9878Z" fill="#435989"/>
<path d="M63.7444 63.3472C65.4157 63.3747 67.0687 63.6948 68.6354 64.2931C70.2907 64.5604 71.8845 65.1357 73.3419 65.9924C71.6548 66.2017 69.9466 66.0029 68.3498 65.4116C66.678 65.1141 65.1002 64.4068 63.7444 63.3472Z" fill="#435989"/>
<path d="M48.1089 55.7455C49.5493 56.1643 50.9089 56.8562 52.1263 57.7915C53.4902 58.4392 54.7402 59.3387 55.825 60.4511C52.9002 59.6919 50.2328 58.0654 48.1089 55.7455Z" fill="#435989"/>
<path d="M33.1122 42.5991C33.3394 42.4208 35.0425 43.8464 37.0988 45.6473C39.1551 47.4482 40.8702 48.9678 40.5779 49.1567C38.9507 48.5263 37.5015 47.554 36.36 46.3233C34.2871 44.5022 32.9057 42.7611 33.1122 42.5991Z" fill="#435989"/>
<path d="M21.7729 26.0378C22.0464 25.9166 23.3699 27.7375 24.9274 29.9885C26.0269 31.2912 26.876 32.7444 27.4403 34.2861C27.1848 34.448 25.4535 32.771 23.9858 30.4922C22.8731 29.1727 22.115 27.6467 21.7729 26.0378Z" fill="#435989"/>
<defs>
<linearGradient id="paint0_linear_57_2999" x1="423.323" y1="160.193" x2="466.33" y2="113.797" gradientUnits="userSpaceOnUse">
<stop stop-color="#C3FFF9"/>
<stop offset="0.5028" stop-color="#F2FFFE"/>
<stop offset="1" stop-color="#EFFFFD"/>
</linearGradient>
<clipPath id="clip0_57_2999">
<rect width="60" height="60" fill="white" transform="translate(407.045 115.352) rotate(-2.17128)"/>
</clipPath>
</defs>
</svg>
