<svg width="24" height="24" viewBox="0 0 24 24" fill="none" xmlns="http://www.w3.org/2000/svg">
<g id="ph:star-bold">
<path id="Vector" d="M22.781 9.00475C22.667 8.65537 22.4529 8.34719 22.1652 8.11851C21.8775 7.88982 21.5289 7.75073 21.1629 7.7185L15.8191 7.25631L13.7285 2.27444C13.5847 1.93565 13.3443 1.64668 13.0374 1.44354C12.7305 1.2404 12.3706 1.13208 12.0025 1.13208C11.6345 1.13208 11.2746 1.2404 10.9677 1.44354C10.6608 1.64668 10.4204 1.93565 10.2766 2.27444L8.18317 7.25631L2.83942 7.7185C2.47135 7.74898 2.12047 7.88748 1.83082 8.11663C1.54117 8.34578 1.32564 8.65536 1.21128 9.00655C1.09693 9.35773 1.08883 9.73486 1.18802 10.0906C1.2872 10.4464 1.48924 10.7649 1.76879 11.0063L5.83004 14.5501L4.61129 19.8226C4.52771 20.1816 4.55181 20.5573 4.68058 20.9027C4.80936 21.2481 5.03709 21.5479 5.3353 21.7646C5.63352 21.9812 5.98899 22.1052 6.35728 22.121C6.72557 22.1367 7.09034 22.0436 7.40598 21.8532L11.9997 19.0632L16.5935 21.8532C16.9091 22.0433 17.2738 22.1362 17.6419 22.1203C18.01 22.1044 18.3653 21.9804 18.6633 21.7637C18.9614 21.5471 19.189 21.2474 19.3177 20.9022C19.4465 20.557 19.4706 20.1815 19.3872 19.8226L18.1685 14.5501L22.2297 11.0063C22.5085 10.7641 22.7096 10.4449 22.8077 10.0888C22.9057 9.7327 22.8965 9.35558 22.781 9.00475ZM16.5232 13.0004C16.2661 13.2241 16.0748 13.5136 15.9699 13.8378C15.865 14.1621 15.8505 14.5088 15.9279 14.8407L16.9957 19.4644L12.97 17.0194C12.6777 16.8414 12.342 16.7473 11.9997 16.7473C11.6574 16.7473 11.3218 16.8414 11.0294 17.0194L7.00379 19.4644L8.07161 14.8407C8.14899 14.5088 8.13445 14.1621 8.02957 13.8378C7.92468 13.5136 7.7334 13.2241 7.47629 13.0004L3.90536 9.88506L8.60598 9.47819C8.94637 9.44904 9.27225 9.32708 9.54813 9.12558C9.82402 8.92408 10.0393 8.65076 10.1707 8.33538L11.9997 3.97694L13.8288 8.33538C13.9601 8.65076 14.1754 8.92408 14.4513 9.12558C14.7272 9.32708 15.0531 9.44904 15.3935 9.47819L20.0941 9.88506L16.5232 13.0004Z" fill="#218B81"/>
</g>
</svg>
