<svg width="24" height="24" viewBox="0 0 24 24" fill="none" xmlns="http://www.w3.org/2000/svg">
<g id="solar:medal-ribbon-linear">
<g id="Group">
<path id="Vector" d="M11.9993 16C15.8653 16 18.9993 12.866 18.9993 9C18.9993 5.13401 15.8653 2 11.9993 2C8.13327 2 4.99927 5.13401 4.99927 9C4.99927 12.866 8.13327 16 11.9993 16Z" stroke="#FFC700" stroke-width="1.5"/>
<path id="Vector_2" d="M7.35037 15L6.71337 17.323C6.08537 19.615 5.77137 20.761 6.19037 21.388C6.33737 21.608 6.53437 21.784 6.76337 21.901C7.41537 22.233 8.42337 21.708 10.4384 20.658C11.1084 20.308 11.4444 20.134 11.8004 20.096C11.9327 20.0818 12.0661 20.0818 12.1984 20.096C12.5544 20.134 12.8894 20.309 13.5604 20.658C15.5754 21.708 16.5834 22.233 17.2354 21.901C17.4644 21.784 17.6614 21.608 17.8084 21.388C18.2284 20.761 17.9134 19.615 17.2854 17.323L16.6484 15" stroke="#FFC700" stroke-width="1.5" stroke-linecap="round"/>
</g>
</g>
</svg>
